<svg xmlns="http://www.w3.org/2000/svg" viewBox="0 0 512 512">
  <defs>
    <linearGradient id="bg" x1="0%" y1="0%" x2="100%" y2="100%">
      <stop offset="0%" style="stop-color:#6366f1"/>
      <stop offset="100%" style="stop-color:#8b5cf6"/>
    </linearGradient>
  </defs>
  <!-- Rounded square background -->
  <rect width="512" height="512" rx="96" ry="96" fill="url(#bg)"/>
  <!-- Sparkle / Star icon matching lucide Sparkles -->
  <g transform="translate(256,256)" fill="none" stroke="white" stroke-width="28" stroke-linecap="round" stroke-linejoin="round">
    <!-- Main sparkle -->
    <path d="M0,-120 C10,-40 40,-10 120,0 C40,10 10,40 0,120 C-10,40 -40,10 -120,0 C-40,-10 -10,-40 0,-120Z" fill="white" stroke="none"/>
    <!-- Small sparkle top-right -->
    <path d="M100,-140 C104,-120 110,-114 130,-110 C110,-106 104,-100 100,-80 C96,-100 90,-106 70,-110 C90,-114 96,-120 100,-140Z" fill="white" stroke="none" opacity="0.7"/>
    <!-- Small sparkle bottom-left -->
    <path d="M-110,90 C-106,110 -100,116 -80,120 C-100,124 -106,130 -110,150 C-114,130 -120,124 -140,120 C-120,116 -114,110 -110,90Z" fill="white" stroke="none" opacity="0.5"/>
  </g>
</svg>
